<?xml version="1.0" encoding="UTF-8"?>
<svg width="198px" height="196px" viewBox="0 0 198 196" version="1.1" xmlns="http://www.w3.org/2000/svg" xmlns:xlink="http://www.w3.org/1999/xlink">
    <!-- Generator: Sketch 46.2 (44496) - http://www.bohemiancoding.com/sketch -->
    <title>sky</title>
    <desc>Created with Sketch.</desc>
    <defs></defs>
    <g id="Page-1" stroke="none" stroke-width="1" fill="none" fill-rule="evenodd">
        <g id="sky" transform="translate(0.000000, -2.000000)" fill-rule="nonzero">
            <g id="Group" fill="#F0C419">
                <path d="M20.1278689,72.69 C20.1278689,70.85 18.6622951,69.3566667 16.8491803,69.3566667 L3.27868852,69.3566667 C1.46557377,69.3566667 0,70.85 0,72.69 C0,74.53 1.46557377,76.0233333 3.27868852,76.0233333 L16.8491803,76.0233333 C18.6590164,76.0233333 20.1278689,74.53 20.1278689,72.69 Z" id="Shape"></path>
                <path d="M68.852459,2.69 C67.0393443,2.69 65.5737705,4.18333333 65.5737705,6.02333333 L65.5737705,19.8166667 C65.5737705,21.6566667 67.0393443,23.15 68.852459,23.15 C70.6655738,23.15 72.1311475,21.6566667 72.1311475,19.8166667 L72.1311475,6.02333333 C72.1311475,4.18333333 70.6655738,2.69 68.852459,2.69 Z" id="Shape"></path>
                <path d="M21.4262295,19.7566667 C20.1442623,18.4533333 18.0721311,18.4533333 16.7901639,19.7566667 C15.5081967,21.06 15.5081967,23.1666667 16.7901639,24.47 L29.7606557,37.6566667 C30.4,38.3066667 31.2393443,38.6333333 32.0786885,38.6333333 C32.9180328,38.6333333 33.757377,38.3066667 34.3967213,37.6566667 C35.6786885,36.3533333 35.6786885,34.2466667 34.3967213,32.9433333 L21.4262295,19.7566667 Z" id="Shape"></path>
                <path d="M120.918033,19.7566667 C119.636066,18.4533333 117.563934,18.4533333 116.281967,19.7566667 L103.311475,32.9466667 C102.029508,34.25 102.029508,36.3566667 103.311475,37.66 C103.95082,38.31 104.790164,38.6366667 105.629508,38.6366667 C106.468852,38.6366667 107.308197,38.31 107.947541,37.66 L120.918033,24.4733333 C122.2,23.17 122.2,21.06 120.918033,19.7566667 Z" id="Shape"></path>
                <path d="M48.9016393,16.3666667 C48.1901639,14.67 46.252459,13.8833333 44.6,14.6 C42.9311475,15.32 42.1540984,17.2766667 42.8622951,18.97 L45.5147541,25.32 C46.0459016,26.59 47.2590164,27.3533333 48.5344262,27.3533333 C48.9639344,27.3533333 49.4,27.2666667 49.8163934,27.0866667 C51.4852459,26.3666667 52.2622951,24.41 51.5540984,22.7166667 L48.9016393,16.3666667 Z" id="Shape"></path>
                <path d="M92.1081967,14.18 C90.4262295,13.4966667 88.5180328,14.3166667 87.8393443,16.0233333 L85.2983607,22.4166667 C84.6196721,24.1233333 85.4295082,26.0666667 87.1081967,26.7566667 C87.5081967,26.92 87.9245902,27 88.3344262,27 C89.6327869,27 90.8590164,26.2133333 91.3737705,24.9133333 L93.9147541,18.52 C94.5967213,16.8133333 93.7836066,14.87 92.1081967,14.18 Z" id="Shape"></path>
                <path d="M19.7016393,90.28 L13.4590164,92.9766667 C11.7901639,93.6966667 11.0131148,95.6533333 11.7213115,97.3466667 C12.252459,98.6166667 13.4655738,99.38 14.7409836,99.38 C15.1704918,99.38 15.6065574,99.2933333 16.0229508,99.1133333 L22.2655738,96.4166667 C23.9344262,95.6966667 24.7114754,93.74 24.0032787,92.0466667 C23.2918033,90.35 21.3508197,89.5633333 19.7016393,90.28 Z" id="Shape"></path>
                <path d="M13.1147541,53.39 L19.4032787,55.9733333 C19.8065574,56.1366667 20.2229508,56.2166667 20.6327869,56.2166667 C21.9311475,56.2166667 23.157377,55.43 23.6721311,54.1333333 C24.3508197,52.4266667 23.5409836,50.4833333 21.8622951,49.7933333 L15.5737705,47.2066667 C13.895082,46.5233333 11.9836066,47.3433333 11.304918,49.0466667 C10.6262295,50.7566667 11.4360656,52.7 13.1147541,53.39 Z" id="Shape"></path>
            </g>
            <path d="M41.9868852,109.586667 C44.3442623,109.85 46.6360656,110.33 48.8295082,111.05 C47.3672131,104.293333 48.842623,96.9466667 53.504918,91.19 C59.642623,83.6133333 69.4983607,80.98 78.1704918,83.7766667 L78.2098361,83.79 C80.8852459,76.94 86.6885246,71.48 94.2819672,69.6633333 C96.9836066,69.0166667 99.6786885,68.9133333 102.285246,69.2333333 C102.262295,68.7166667 102.209836,68.21 102.209836,67.6866667 C102.209836,60.81 104.190164,54.4133333 107.560656,49.0033333 C99.6393443,35.6666667 85.295082,26.7133333 68.852459,26.7133333 C43.8754098,26.7133333 23.6295082,47.2966667 23.6295082,72.69 C23.6295082,87.8366667 30.8655738,101.22 41.9868852,109.586667 Z" id="Shape" fill="#EDE21B"></path>
            <path d="M197.219672,91.23 L196.954098,91.23 C197.068852,92.2433333 197.147541,93.2666667 197.147541,94.3133333 C197.147541,96.1566667 195.681967,97.6466667 193.868852,97.6466667 C192.055738,97.6466667 190.590164,96.1566667 190.590164,94.3133333 C190.590164,83.2833333 181.767213,74.3133333 170.918033,74.3133333 C160.068852,74.3133333 151.245902,83.2833333 151.245902,94.3133333 C151.245902,96.1566667 149.780328,97.6466667 147.967213,97.6466667 C146.154098,97.6466667 144.688525,96.1566667 144.688525,94.3133333 C144.688525,80.7666667 154.685246,69.57 167.567213,67.89 C166.82623,51.0933333 153.193443,37.6466667 136.491803,37.6466667 C119.734426,37.6466667 106.062295,51.18 105.406557,68.0566667 C108.12459,68.71 110.757377,69.79 113.203279,71.3266667 C119.157377,75.0766667 123.321311,80.96 124.927869,87.8933333 C125.340984,89.6866667 124.24918,91.48 122.488525,91.9033333 C120.72459,92.3066667 118.960656,91.2133333 118.544262,89.4233333 C116.059016,78.6833333 105.432787,72.0033333 94.8918033,74.5333333 C84.3311475,77.06 77.7606557,87.8466667 80.2459016,98.5833333 C80.6590164,100.373333 79.5672131,102.166667 77.8032787,102.59 C77.5540984,102.65 77.3016393,102.676667 77.052459,102.676667 C75.5672131,102.676667 74.2196721,101.64 73.8622951,100.106667 C72.8983607,95.9366667 72.9836066,91.7666667 73.9016393,87.86 C67.1540984,86.8566667 60.3377049,89.4466667 55.8918033,94.9333333 C51.7672131,100.03 50.5639344,106.593333 52.0393443,112.55 C52.042623,112.59 52.0622951,112.623333 52.0655738,112.663333 C53.0688525,116.616667 55.2459016,120.296667 58.5737705,123.086667 C59.9704918,124.26 60.1704918,126.356667 59.0229508,127.78 C58.3737705,128.58 57.4360656,128.993333 56.4885246,128.993333 C55.7540984,128.993333 55.0196721,128.746667 54.4065574,128.233333 C50.4163934,124.893333 47.5606557,120.53 46.0590164,115.63 C32.8032787,112.116667 18.8655738,117.786667 11.6655738,129.836667 C7.34754098,137.063333 6.05245902,145.57 8.02622951,153.786667 C10,162.006667 15,168.95 22.1114754,173.343333 C23.6590164,174.3 24.1508197,176.346667 23.2098361,177.923333 C22.5934426,178.956667 21.5114754,179.523333 20.4065574,179.523333 C19.9704918,179.523333 19.5377049,179.403333 19.1213115,179.22 C24.3016393,182.34 30.2655738,184.25 36.642623,184.53 L63.557377,184.54 C80.957377,184.256667 95.8622951,173.34 102.216393,157.9 C108.652459,173.543333 123.865574,184.566667 141.560656,184.566667 C172.295082,184.566667 197.298361,159.146667 197.298361,127.9 L197.298361,94.5666667 L197.219672,91.23 Z" id="Shape" fill="#D0E8F9"></path>
            <path d="M174.12459,68.1166667 C173.370492,47.6533333 156.803279,31.23 136.491803,31.23 C116.354098,31.23 99.9016393,47.3766667 98.8852459,67.5966667 C97.0557377,67.6366667 95.2163934,67.8566667 93.3901639,68.2933333 C85.7311475,70.1266667 79.6688525,75.2333333 76.2459016,81.8 C66.7967213,79.85 57.0721311,83.2433333 50.8360656,90.94 C46.7344262,96.0066667 44.6754098,102.3 44.9016393,108.803333 C29.7213115,106.023333 14.2786885,112.883333 6.06885246,126.616667 C0.836065574,135.366667 -0.727868852,145.663333 1.65901639,155.61 C4.04590164,165.556667 10.1016393,173.963333 18.7081967,179.283333 C19.2393443,179.613333 19.8295082,179.77 20.4098361,179.77 C21.5180328,179.77 22.5967213,179.2 23.2131148,178.17 C24.1540984,176.593333 23.6622951,174.546667 22.1147541,173.59 C15.0032787,169.196667 10.0032787,162.253333 8.0295082,154.033333 C6.0557377,145.816667 7.35081967,137.31 11.6688525,130.083333 C18.8688525,118.036667 32.8065574,112.366667 46.0622951,115.876667 C47.5639344,120.78 50.4229508,125.14 54.4098361,128.48 C55.0229508,128.99 55.757377,129.24 56.4918033,129.24 C57.4393443,129.24 58.3770492,128.826667 59.0262295,128.026667 C60.1770492,126.603333 59.9737705,124.503333 58.5770492,123.333333 C55.2459016,120.546667 53.0721311,116.863333 52.0688525,112.91 C52.0655738,112.87 52.0459016,112.836667 52.042623,112.796667 C50.5672131,106.84 51.7704918,100.276667 55.895082,95.18 C60.3409836,89.6933333 67.157377,87.1033333 73.904918,88.1066667 C72.9868852,92.0166667 72.8983607,96.1833333 73.8655738,100.353333 C74.2196721,101.89 75.5704918,102.923333 77.0557377,102.923333 C77.304918,102.923333 77.557377,102.893333 77.8065574,102.836667 C79.5704918,102.413333 80.6622951,100.62 80.2491803,98.83 C77.7639344,88.0933333 84.3344262,77.3066667 94.895082,74.78 C105.436066,72.25 116.062295,78.93 118.547541,89.67 C118.963934,91.46 120.727869,92.5533333 122.491803,92.15 C124.252459,91.7266667 125.344262,89.9333333 124.931148,88.14 C123.32459,81.2066667 119.160656,75.3233333 113.206557,71.5733333 C110.760656,70.0333333 108.127869,68.9566667 105.409836,68.3033333 C106.065574,51.4266667 119.737705,37.8933333 136.495082,37.8933333 C153.196721,37.8933333 166.832787,51.3366667 167.570492,68.1366667 C154.688525,69.8166667 144.691803,81.0133333 144.691803,94.56 C144.691803,96.4033333 146.157377,97.8933333 147.970492,97.8933333 C149.783607,97.8933333 151.24918,96.4033333 151.24918,94.56 C151.24918,83.53 160.072131,74.56 170.921311,74.56 C181.770492,74.56 190.744262,83.53 190.744262,94.56 C190.744262,94.6533333 190.744262,98.9833333 190.744262,104.56 C190.744262,106.4 192.213115,107.893333 194.022951,107.893333 C195.832787,107.893333 197.301639,106.4 197.301639,104.56 L197.301639,94.56 C197.298361,80.9666667 187.078689,69.7333333 174.12459,68.1166667 Z" id="Shape" fill="#ABCADD"></path>
            <g id="Group" transform="translate(68.852459, 140.000000)">
                <path d="M37.5934426,22.2066667 L27.757377,32.2066667 C26.4754098,33.51 26.4754098,35.6166667 27.757377,36.92 C28.3967213,37.57 29.2360656,37.8966667 30.0754098,37.8966667 C30.9147541,37.8966667 31.7540984,37.57 32.3934426,36.92 L42.2295082,26.92 C43.5114754,25.6166667 43.5114754,23.51 42.2295082,22.2066667 C40.947541,20.9033333 38.8721311,20.9066667 37.5934426,22.2066667 Z" id="Shape" fill="#ABC5D3"></path>
                <path d="M17.9213115,42.2066667 L8.0852459,52.2066667 C6.80327869,53.51 6.80327869,55.6166667 8.0852459,56.92 C8.72459016,57.57 9.56393443,57.8966667 10.4032787,57.8966667 C11.242623,57.8966667 12.0819672,57.57 12.7213115,56.92 L22.557377,46.92 C23.8393443,45.6166667 23.8393443,43.51 22.557377,42.2066667 C21.2754098,40.9033333 19.2,40.9066667 17.9213115,42.2066667 Z" id="Shape" fill="#ABC5D3"></path>
                <path d="M88.1311475,2.20666667 C86.8491803,0.903333333 84.7770492,0.903333333 83.495082,2.20666667 L73.6590164,12.2066667 C72.3770492,13.51 72.3770492,15.6166667 73.6590164,16.92 C74.2983607,17.57 75.1377049,17.8966667 75.9770492,17.8966667 C76.8163934,17.8966667 77.6557377,17.57 78.295082,16.92 L88.1311475,6.92 C89.4131148,5.62 89.4131148,3.51 88.1311475,2.20666667 Z" id="Shape" fill="#FFFFFF"></path>
                <path d="M63.8229508,22.2066667 L53.9868852,32.2066667 C52.704918,33.51 52.704918,35.6166667 53.9868852,36.92 C54.6262295,37.57 55.4655738,37.8966667 56.304918,37.8966667 C57.1442623,37.8966667 57.9836066,37.57 58.6229508,36.92 L68.4590164,26.92 C69.7409836,25.6166667 69.7409836,23.51 68.4590164,22.2066667 C67.1770492,20.9033333 65.1016393,20.9066667 63.8229508,22.2066667 Z" id="Shape" fill="#FFFFFF"></path>
                <path d="M35.6721311,2.20666667 C34.3901639,0.903333333 32.3180328,0.903333333 31.0360656,2.20666667 L21.2,12.2066667 C19.9180328,13.51 19.9180328,15.6166667 21.2,16.92 C21.8393443,17.57 22.6786885,17.8966667 23.5180328,17.8966667 C24.357377,17.8966667 25.1967213,17.57 25.8360656,16.92 L35.6721311,6.92 C36.9540984,5.62 36.9540984,3.51 35.6721311,2.20666667 Z" id="Shape" fill="#FFFFFF"></path>
                <path d="M61.9016393,2.20666667 C60.6196721,0.903333333 58.547541,0.903333333 57.2655738,2.20666667 L47.4295082,12.2066667 C46.147541,13.51 46.147541,15.6166667 47.4295082,16.92 C48.0688525,17.57 48.9081967,17.8966667 49.747541,17.8966667 C50.5868852,17.8966667 51.4262295,17.57 52.0655738,16.92 L61.9016393,6.92 C63.1836066,5.62 63.1836066,3.51 61.9016393,2.20666667 Z" id="Shape" fill="#FFFFFF"></path>
                <path d="M16,22.2066667 C14.7180328,20.9033333 12.6459016,20.9033333 11.3639344,22.2066667 L1.52786885,32.2066667 C0.245901639,33.51 0.245901639,35.6166667 1.52786885,36.92 C2.16721311,37.57 3.00655738,37.8966667 3.84590164,37.8966667 C4.6852459,37.8966667 5.52459016,37.57 6.16393443,36.92 L16,26.92 C17.2819672,25.62 17.2819672,23.51 16,22.2066667 Z" id="Shape" fill="#ABC5D3"></path>
            </g>
        </g>
    </g>
</svg>