<?xml version="1.0" encoding="UTF-8"?>
<svg width="113px" height="236px" viewBox="0 0 113 236" version="1.1" xmlns="http://www.w3.org/2000/svg" xmlns:xlink="http://www.w3.org/1999/xlink">
    <!-- Generator: Sketch 42 (36781) - http://www.bohemiancoding.com/sketch -->
    <title>cry</title>
    <desc>Created with Sketch.</desc>
    <defs></defs>
    <g id="Page-1" stroke="none" stroke-width="1" fill="none" fill-rule="evenodd">
        <g id="cry" fill-rule="nonzero" fill="#000000">
            <g id="Group">
                <path d="M21.299,22.659 C21.299,22.659 2.661,10.742 0.096,21.514 C-1.662,28.905 21.299,22.659 21.299,22.659 Z" id="Shape"></path>
                <path d="M28.953,10.611 C28.953,10.611 23.166,-4.053 17.186,1.096 C13.086,4.631 28.953,10.611 28.953,10.611 Z" id="Shape"></path>
                <path d="M7.194,45.036 C8.91,50.329 20.897,37.677 20.897,37.677 C20.897,37.677 4.695,37.319 7.194,45.036 Z" id="Shape"></path>
                <path d="M76.793,58.02 C78.682,56.184 81.154,55.181 83.77,55.181 C86.492,55.181 89.038,56.254 90.939,58.204 C94.782,62.158 94.696,68.5 90.749,72.345 C89.495,73.54 86.236,76.502 81.613,79.574 C78.626,81.503 75.289,83.45 71.537,84.909 C74.48,96.268 77.307,109.35 76.804,121.424 C76.551,121.814 76.313,122.217 76.1,122.642 C75.554,123.776 65.477,144.104 65.447,175.482 C65.443,190.704 67.866,208.51 74.964,227.659 C76.833,232.702 81.609,235.82 86.689,235.821 C88.131,235.821 89.597,235.57 91.029,235.04 C97.503,232.642 100.806,225.449 98.407,218.976 C92.425,202.815 90.45,188.077 90.445,175.483 C90.445,162.529 92.562,151.854 94.637,144.535 C95.631,141.022 96.611,138.299 97.334,136.467 C104.277,134.806 110.686,130.402 112.245,118.329 C113.415,95.995 111.121,82.984 103.05,63.283 C97.095,48.99 84.45,45.148 76.066,47.815 C69.688,49.842 66.442,57.347 66.789,65.115 C67.941,64.538 69.098,63.881 70.186,63.152 C74.01,60.678 76.766,58.044 76.793,58.02 Z" id="Shape"></path>
                <path d="M25.929,41.093 C25.396,43.357 24.987,45.663 23.318,47.88 C21.546,50.28 20.94,54.167 20.92,58.494 C20.922,63.231 21.732,68.47 23.11,72.631 C24.536,76.725 26.301,80.048 29.397,80.331 C30.894,80.396 31.974,80.447 32.838,80.447 C35.189,80.5 36.137,79.882 38.022,78.588 C38.24,78.46 38.474,78.401 38.785,78.397 C39.427,78.381 40.383,78.761 41.451,79.255 C40.819,78.568 40.21,77.85 39.639,77.09 C39.477,76.873 39.323,76.647 39.166,76.424 C39.04,76.413 38.914,76.4 38.785,76.398 L38.773,76.398 C38.169,76.398 37.527,76.547 36.951,76.9 C34.771,78.291 34.968,78.395 32.839,78.447 C32.054,78.447 30.985,78.398 29.481,78.331 C28.253,78.447 26.26,75.976 25.009,72.002 C23.709,68.097 22.92,63 22.923,58.493 C22.902,54.383 23.627,50.742 24.916,49.083 L24.119,48.481 L24.916,49.081 C27.556,45.548 27.519,41.906 28.447,39.585 C28.909,38.414 29.482,37.571 30.717,36.882 C31.96,36.197 33.969,35.709 37.189,35.653 C37.275,35.651 37.35,35.649 37.421,35.649 C40.091,35.682 41.839,36.471 43.08,37.825 C46.888,38.93 49.778,42.242 50.216,46.378 C50.547,49.553 50.985,52.216 51.47,54.452 C53.481,54.543 55.537,54.369 57.595,53.89 C69.695,51.074 77.22,38.98 74.404,26.88 C71.581,14.784 59.488,7.258 47.388,10.077 C36.012,12.725 28.682,23.573 30.188,34.916 C30.042,34.985 29.893,35.053 29.755,35.128 C27.186,36.521 26.439,38.876 25.929,41.093 Z" id="Shape"></path>
                <path d="M39.43,39.475 C35.034,39.937 31.849,43.874 32.313,48.268 C33.652,60.694 36.472,69.506 41.237,75.889 C43.617,79.054 46.563,81.526 49.797,83.088 C53.012,84.659 56.42,85.298 59.589,85.298 L59.635,85.298 C68.263,85.186 75.255,81.299 80.505,77.909 C85.718,74.446 89.119,71.132 89.352,70.913 C92.517,67.832 92.586,62.767 89.505,59.601 C86.424,56.438 81.364,56.367 78.199,59.441 L78.198,59.441 L78.19,59.447 L78.191,59.448 C77.985,59.651 75.113,62.344 71.298,64.811 C67.459,67.381 62.597,69.399 59.634,69.297 C58.481,69.291 57.622,69.097 56.792,68.698 C55.59,68.091 54.067,66.919 52.351,63.524 C50.67,60.161 49.063,54.657 48.221,46.589 C47.759,42.196 43.823,39.01 39.43,39.475 Z" id="Shape"></path>
            </g>
        </g>
    </g>
</svg>