<?xml version="1.0" encoding="UTF-8"?>
<svg width="907px" height="491px" viewBox="0 0 907 491" version="1.1" xmlns="http://www.w3.org/2000/svg" xmlns:xlink="http://www.w3.org/1999/xlink">
    <!-- Generator: Sketch 46.2 (44496) - http://www.bohemiancoding.com/sketch -->
    <title>email</title>
    <desc>Created with Sketch.</desc>
    <defs></defs>
    <g id="Page-1" stroke="none" stroke-width="1" fill="none" fill-rule="evenodd">
        <g id="email" transform="translate(15.000000, 0.000000)">
            <path d="M766.699,426.976 C737.476,438.299 702.592,443.919 661.963,443.919 C619.836,443.919 582.413,437.175 549.735,423.688 C517.016,410.159 491.623,388.721 473.515,359.331 C455.448,329.942 446.415,297.306 446.415,261.464 C446.415,224.624 454.491,189.157 470.726,155.105 C486.961,121.012 511.063,94.62 543.117,75.846 C575.129,57.071 614.134,47.664 660.174,47.664 C714.374,47.664 756.584,61.734 786.847,89.875 C817.069,117.973 832.18,152.941 832.18,194.693 C832.18,218.005 826.852,240.483 816.153,262.255 C805.455,283.984 791.426,301.302 774.109,314.207 C761.162,324.073 750.631,328.985 742.513,328.985 C739.766,328.985 737.435,327.944 735.478,325.822 C733.521,323.698 732.564,320.494 732.564,316.247 C732.564,312.875 733.729,305.383 736.144,293.851 L774.609,111.148 L707.338,111.148 L700.97,139.413 C686.525,116.31 664.17,104.779 633.949,104.779 C591.489,104.779 556.646,124.802 529.464,164.89 C507.027,197.859 495.829,234.283 495.829,274.204 C495.829,306.507 505.111,332.358 523.719,351.799 C542.326,371.28 565.721,380.98 593.945,380.98 C620.088,380.98 643.191,371.322 663.256,351.924 C665.628,361.457 670.374,368.658 677.534,373.612 C684.652,378.524 695.267,380.98 709.379,380.98 C761.705,380.98 804.582,358.917 838.05,314.75 C864.734,279.741 878.054,240.57 878.054,197.277 C878.054,160.894 869.27,127.384 851.703,96.746 C834.095,66.066 808.661,42.422 775.358,25.771 C742.055,9.117 704.008,0.791 661.214,0.791 C610.762,0.791 565.886,11.115 526.673,31.762 C487.418,52.41 456.489,83.298 433.927,124.509 C411.323,165.72 400,210.179 400,257.926 C400,301.385 409.949,341.597 429.847,378.563 C449.703,415.529 480.05,443.46 520.803,462.401 C561.557,481.342 609.969,490.791 666.042,490.791 C723.988,490.791 773.067,479.593 813.321,457.156 C848.497,437.633 874.597,410.616 891.581,376.149 L837.298,376.149 C819.44,398.753 795.921,415.694 766.699,426.976 Z M677.116,265.794 C670.581,285.692 662.838,300.803 653.804,311.168 C647.518,318.452 641.15,323.823 634.697,327.236 C626.205,331.981 617.13,334.354 607.431,334.354 C594.526,334.354 583.703,329.276 574.961,319.076 C566.22,308.877 561.848,292.976 561.848,271.412 C561.848,255.261 564.97,236.778 571.256,215.881 C577.542,194.984 586.866,178.874 599.271,167.593 C611.676,156.27 625.206,150.609 639.816,150.609 C653.387,150.609 664.668,155.771 673.576,166.053 C682.484,176.335 686.939,191.071 686.939,210.262 C686.94,227.412 683.693,245.937 677.116,265.794 Z" id="Shape" fill="#FF8C32" fill-rule="nonzero"></path>
            <path d="M152,100 L152,400" id="Line" stroke="#FF8C32" stroke-width="30" stroke-linecap="square"></path>
            <path d="M303.006601,245 L0,245" id="Line-Copy" stroke="#FF8C32" stroke-width="30" stroke-linecap="square"></path>
        </g>
    </g>
</svg>